<svg xmlns="http://www.w3.org/2000/svg" xmlns:xlink="http://www.w3.org/1999/xlink" width="500" zoomAndPan="magnify" viewBox="0 0 375 374.999991" height="500" preserveAspectRatio="xMidYMid meet" version="1.0"><defs><g/></defs><g fill="#ffffff" fill-opacity="1"><g transform="translate(-5.047389, 229.750809)"><g><path d="M 7.359375 -58.265625 L 74.46875 -85.5 L 74.46875 -68.078125 L 30.546875 -50.90625 L 74.46875 -33.984375 L 74.46875 -16.5625 L 7.359375 -43.796875 Z M 7.359375 -58.265625 "/></g></g></g><g fill="#ffffff" fill-opacity="1"><g transform="translate(85.363732, 229.750809)"><g><path d="M 0.984375 -80.96875 L 0.984375 -101.203125 L 72.125 -101.203125 L 72.125 -80.96875 L 48.09375 -80.96875 L 48.09375 0 L 25.03125 0 L 25.03125 -80.96875 Z M 0.984375 -80.96875 "/></g></g></g><g fill="#ffffff" fill-opacity="1"><g transform="translate(167.678352, 229.750809)"><g><path d="M 30.421875 -101.203125 L 30.421875 0 L 7.359375 0 L 7.359375 -101.203125 Z M 30.421875 -101.203125 "/></g></g></g><g fill="#ffffff" fill-opacity="1"><g transform="translate(214.662712, 229.750809)"><g><path d="M 72.125 -105.5 L 21.59375 14.71875 L 2.828125 14.71875 L 53.359375 -105.5 Z M 72.125 -105.5 "/></g></g></g><g fill="#ffffff" fill-opacity="1"><g transform="translate(298.817447, 229.750809)"><g><path d="M 6.75 -33.984375 L 50.65625 -50.90625 L 6.75 -68.078125 L 6.75 -85.5 L 73.84375 -58.265625 L 73.84375 -43.796875 L 6.75 -16.5625 Z M 6.75 -33.984375 "/></g></g></g></svg>